<?xml version="1.0" standalone="no"?>
<!DOCTYPE svg PUBLIC "-//W3C//DTD SVG 20010904//EN"
 "http://www.w3.org/TR/2001/REC-SVG-20010904/DTD/svg10.dtd">
<svg version="1.0" xmlns="http://www.w3.org/2000/svg"
 width="260.000000pt" height="260.000000pt" viewBox="0 0 260.000000 260.000000"
 preserveAspectRatio="xMidYMid meet">
<metadata>
Created by potrace 1.11, written by Peter Selinger 2001-2013
</metadata>
<g transform="translate(0.000000,260.000000) scale(0.100000,-0.100000)"
fill="#000000" stroke="none">
<path d="M1 2228 c1 -205 3 -364 6 -353 3 11 9 24 14 29 5 6 9 16 9 24 0 17
73 92 89 92 6 0 11 5 11 12 0 6 24 35 54 65 39 38 57 50 63 41 4 -7 13 -51 19
-96 14 -99 5 -141 -35 -174 -16 -13 -40 -41 -54 -63 -15 -22 -54 -78 -87 -125
-99 -138 -90 -50 -90 -915 l0 -765 1300 0 1300 0 -2 332 c-3 285 -5 333 -18
333 -8 0 -19 -10 -26 -23 -17 -34 -25 -38 -22 -11 3 23 0 24 -57 25 -74 1 -70
19 5 20 30 1 69 6 85 11 l30 9 3 166 c2 159 2 166 -18 171 -20 5 -50 -15 -50
-33 0 -5 9 -18 21 -29 l21 -19 -29 -6 c-48 -11 -122 -11 -132 -1 -4 6 -11 31
-15 58 -6 52 -15 47 84 51 23 1 35 6 35 15 0 19 -51 33 -91 26 -26 -5 -32 -2
-37 16 -3 12 -2 29 2 38 6 10 4 21 -5 29 -17 15 -22 7 -26 -48 -3 -34 -4 -35
-44 -32 -74 6 -68 -31 7 -44 35 -6 36 -6 37 -59 l1 -54 -37 -3 c-20 -2 -47 1
-59 6 -18 7 -20 13 -13 32 5 13 8 24 7 25 -39 13 -107 13 -120 0 -5 -5 9 -15
32 -22 23 -8 42 -18 44 -24 3 -13 -68 -23 -163 -24 l-76 -1 -48 99 c-27 55
-46 104 -42 109 3 5 -3 20 -14 32 -11 13 -20 32 -20 44 0 12 -7 30 -15 40 -8
11 -15 30 -15 42 0 13 -5 26 -11 30 -6 3 -8 17 -5 30 4 14 2 24 -4 24 -5 0
-10 -7 -10 -16 0 -9 -6 -14 -12 -11 -7 2 -26 -16 -41 -40 -31 -49 -46 -51 -60
-9 -10 31 -1 80 13 71 5 -3 18 -2 28 4 14 7 17 18 14 51 -2 23 -10 44 -18 47
-11 4 -11 8 2 20 10 10 13 25 10 39 -10 37 0 28 23 -21 11 -24 18 -51 15 -60
-13 -32 6 -13 21 21 30 72 14 124 -32 107 -16 -6 -16 -5 -5 10 8 9 11 20 8 25
-3 6 1 29 10 53 19 51 23 91 25 252 1 64 4 117 6 117 12 0 172 -84 218 -115
30 -19 60 -35 69 -35 22 0 28 -16 15 -38 -21 -34 -5 -52 47 -52 40 0 51 -5 80
-35 18 -19 37 -35 43 -35 6 0 16 -10 22 -22 7 -13 23 -36 35 -51 14 -17 24
-42 24 -61 0 -18 7 -41 15 -52 14 -19 14 -18 15 4 0 28 15 28 35 0 39 -56 65
-100 65 -109 0 -6 11 -29 24 -52 23 -39 59 -139 71 -197 2 -14 8 -37 11 -52 5
-23 3 -28 -14 -28 -11 0 -25 -7 -32 -16 -18 -21 9 -49 39 -39 21 6 21 7 21
443 0 463 -2 476 -48 497 -12 5 -22 13 -22 17 0 11 -74 77 -170 151 -30 23
-56 45 -58 49 -2 5 -9 8 -16 8 -7 0 -21 9 -31 20 -10 11 -24 20 -31 20 -16 0
-72 30 -98 52 -20 18 -19 19 18 90 53 101 96 187 96 193 0 3 -22 5 -49 5 l-48
0 -37 -80 c-20 -43 -36 -83 -36 -88 0 -5 -7 -23 -16 -40 -15 -31 -33 -40 -48
-25 -11 11 -108 45 -211 73 -16 4 -38 11 -47 15 -13 5 -18 2 -18 -8 0 -9 13
-18 30 -22 24 -5 30 -12 30 -33 0 -41 13 -54 41 -44 30 10 60 4 58 -11 -1 -7
1 -20 6 -30 4 -10 6 -20 4 -22 -2 -2 -42 10 -89 25 -47 16 -93 29 -102 30 -10
0 -18 5 -18 10 0 6 -7 10 -17 8 -11 -2 -19 7 -25 30 -11 42 -32 43 -23 1 5
-22 4 -29 -4 -25 -6 4 -11 2 -11 -4 0 -12 -40 6 -52 24 -13 18 -9 36 7 36 10
0 15 10 15 30 0 20 -5 30 -15 30 -7 0 -18 6 -22 13 -18 27 -44 39 -100 43 -40
3 -53 1 -43 -6 8 -5 10 -10 4 -10 -19 0 -22 10 -14 46 8 33 7 34 -24 34 -27 0
-34 -6 -48 -35 -10 -24 -12 -36 -4 -39 6 -2 1 -5 -12 -5 -13 -1 -32 3 -42 9
-15 8 -17 15 -10 40 8 27 7 30 -16 30 -15 0 -24 -6 -24 -15 0 -9 -7 -18 -15
-21 -11 -5 -13 -10 -5 -19 15 -18 2 -24 -36 -18 l-32 5 16 28 c9 16 14 32 10
36 -15 15 -36 -7 -47 -49 -10 -40 -15 -47 -48 -57 -21 -7 -48 -21 -60 -33 -13
-11 -30 -17 -42 -14 -15 4 -27 -5 -48 -37 -15 -22 -33 -53 -39 -67 -11 -25
-84 -89 -101 -89 -15 0 -93 -39 -191 -97 -51 -29 -97 -51 -102 -48 -6 3 -10
39 -10 79 0 73 -14 107 -39 92 -20 -13 -21 14 0 38 17 19 28 23 54 19 19 -3
35 0 39 6 4 6 20 11 37 11 19 0 29 5 29 15 0 8 9 24 20 35 16 16 28 19 66 13
l45 -6 -5 39 c-3 21 -3 33 0 27 9 -20 23 -15 21 6 0 11 -5 17 -10 14 -4 -3 -7
12 -5 33 3 34 6 39 27 39 13 0 26 -7 28 -15 4 -13 3 -13 -6 0 -8 12 -11 7 -11
-22 0 -60 10 -52 60 50 l11 22 -411 0 -410 0 1 -372z m1164 276 c26 -12 27
-14 5 -9 -14 2 -33 5 -42 5 -10 0 -18 5 -18 10 0 14 19 12 55 -6z m231 -18
c14 -11 16 -17 7 -26 -14 -15 -36 -3 -29 15 3 8 0 16 -7 19 -7 2 -7 5 -1 5 5
1 19 -5 30 -13z m693 -230 c4 -30 11 -51 19 -52 6 -1 26 -2 42 -2 42 -3 37
-22 -6 -22 -21 0 -50 10 -72 25 -20 14 -47 25 -59 25 -16 0 -25 8 -29 25 -3
14 -10 25 -16 25 -5 0 -6 -6 -2 -12 6 -9 3 -9 -9 0 -9 8 -21 10 -28 6 -7 -4
-10 -2 -7 7 3 8 18 14 34 15 91 2 94 3 94 31 l0 27 16 -23 c10 -13 20 -47 23
-75z m-1729 27 c-8 -3 -18 -11 -22 -17 -5 -7 -8 -4 -8 7 0 11 7 17 23 16 15 0
17 -2 7 -6z m37 -35 c-3 -8 -6 -5 -6 6 -1 11 2 17 5 13 3 -3 4 -12 1 -19z m5
-63 c4 -22 7 -61 7 -88 1 -41 -3 -51 -31 -77 -28 -25 -56 -38 -59 -27 0 1 -5
36 -9 77 -5 41 -12 94 -16 117 -7 47 3 53 66 43 31 -5 35 -9 42 -45z m-122 15
c0 -11 -4 -20 -10 -20 -5 0 -10 9 -10 20 0 11 5 20 10 20 6 0 10 -9 10 -20z
m-65 -39 c3 -5 1 -12 -5 -16 -5 -3 -10 1 -10 9 0 18 6 21 15 7z m2032 -28 c-3
-18 1 -27 16 -32 13 -5 16 -10 9 -15 -6 -3 -13 -2 -17 4 -4 6 -11 7 -17 4 -7
-4 -8 -2 -4 4 4 7 1 12 -8 12 -17 0 -21 12 -8 24 4 4 8 12 8 17 3 19 4 20 15
13 6 -3 9 -17 6 -31z m-1025 -37 c16 -21 18 -21 47 -3 23 13 40 16 68 11 51
-9 170 -67 212 -102 34 -28 35 -30 33 -101 -2 -45 3 -84 12 -104 36 -81 29
-94 -32 -57 -26 16 -50 20 -124 20 -80 0 -95 -3 -115 -22 -13 -13 -23 -33 -23
-50 0 -28 15 -39 22 -16 3 8 33 14 87 16 66 3 91 0 122 -14 21 -11 39 -25 39
-33 0 -7 -6 -11 -12 -8 -43 16 -160 29 -194 21 -22 -4 -47 -7 -56 -6 -12 1
-20 -8 -24 -25 -11 -42 6 -56 64 -57 58 -1 65 5 25 24 -26 12 -27 13 -8 21 30
11 35 11 35 -6 0 -30 35 -51 88 -54 56 -2 85 9 119 46 12 12 26 23 32 23 24 0
27 -210 4 -255 -6 -11 -23 -45 -39 -75 -32 -64 -64 -112 -81 -123 -7 -4 -13
-16 -13 -26 0 -9 -11 -32 -24 -50 -13 -17 -27 -52 -31 -77 -7 -50 -60 -113
-124 -148 -48 -26 -159 -27 -221 -3 -55 22 -129 93 -130 125 0 12 -4 22 -10
22 -5 0 -10 11 -10 25 0 15 -7 28 -17 32 -10 4 -23 14 -30 22 -7 9 -13 11 -13
5 0 -7 -7 -15 -16 -18 -8 -3 -13 -2 -10 3 3 5 -1 11 -9 15 -8 3 -15 16 -15 28
-1 30 -37 168 -49 182 -10 13 -20 98 -27 240 -4 74 -1 107 10 130 8 17 17 45
21 61 7 32 21 67 38 100 6 11 13 55 17 99 l5 79 70 39 c137 78 247 95 287 44z
m1098 -38 c0 7 6 12 14 12 9 0 12 -8 8 -26 -2 -14 -7 -22 -11 -16 -3 5 -16 14
-29 21 -12 7 -20 17 -16 23 5 7 12 5 21 -7 7 -11 13 -13 13 -7z m-1655 -181
c2 -45 13 -92 55 -230 8 -27 7 -29 -16 -23 -13 4 -24 2 -24 -4 0 -5 5 -10 11
-10 36 0 53 -69 34 -141 -13 -50 -6 -76 18 -66 12 5 18 -9 28 -66 18 -108 47
-215 76 -280 33 -74 27 -81 -82 -86 -47 -1 -85 -7 -85 -12 0 -7 78 -14 138
-12 16 1 15 -14 -2 -20 -8 -3 -24 -24 -37 -46 -23 -41 -39 -52 -39 -28 0 25
-35 55 -78 66 -47 13 -53 25 -19 36 17 6 9 9 -34 14 -31 3 -63 12 -71 19 -18
14 -31 3 -43 -36 -5 -19 -13 -23 -38 -20 -28 3 -32 8 -44 53 -7 28 -17 113
-23 190 -6 77 -13 158 -15 180 -31 290 -30 302 23 363 33 37 49 28 56 -30 26
-211 27 -310 3 -372 -9 -24 -8 -31 7 -41 20 -15 36 -66 36 -113 0 -20 4 -31
10 -27 5 3 9 29 8 57 -2 41 1 53 20 68 12 10 22 27 22 37 0 38 -31 122 -49
135 -16 11 -20 36 -29 172 -13 185 -9 201 59 257 54 44 111 80 118 73 3 -2 6
-28 6 -57z m-331 -380 c4 -50 9 -103 11 -117 5 -33 20 -164 36 -319 12 -118
12 -124 -6 -137 -26 -19 -298 -20 -313 -1 -24 30 28 280 86 417 36 83 110 218
140 252 26 30 39 4 46 -95z m1349 -467 c46 -86 56 -120 38 -120 -5 0 -14 6
-20 13 -6 8 -29 22 -51 32 -40 18 -40 18 -40 76 0 58 7 89 19 89 3 0 27 -40
54 -90z m-713 -196 c0 -7 16 -26 35 -43 19 -17 35 -34 35 -39 0 -4 15 -22 33
-40 32 -31 33 -31 110 -26 74 5 153 -8 143 -25 -3 -4 0 -13 5 -21 7 -12 11
-12 17 -2 5 7 16 10 25 7 10 -4 20 1 28 17 30 58 100 156 114 161 8 4 15 12
15 19 0 7 13 20 29 29 28 16 29 16 29 -5 1 -34 22 -170 27 -175 3 -2 5 22 5
55 0 32 4 65 9 73 14 21 24 -46 19 -117 -3 -49 -10 -66 -47 -114 -23 -32 -40
-61 -37 -66 3 -5 -17 -35 -45 -68 -28 -32 -71 -93 -96 -134 -89 -146 -114
-181 -124 -175 -5 4 -28 32 -51 63 -55 75 -169 193 -237 245 -31 23 -67 53
-81 67 -14 14 -35 32 -48 40 -40 27 -63 170 -27 170 12 0 25 51 25 103 0 16 5
37 10 48 10 19 12 18 45 -8 19 -16 35 -33 35 -39z m-573 -146 c5 -7 10 -23 11
-36 1 -29 -76 -86 -178 -132 -41 -18 -85 -40 -98 -48 -12 -8 -24 -13 -26 -11
-18 24 -52 212 -41 229 10 16 320 13 332 -2z m1813 -4 c12 -4 13 -6 0 -14 -9
-6 -20 -4 -29 3 -12 9 -13 9 -7 0 4 -7 4 -13 1 -13 -7 0 -65 29 -65 33 0 4 83
-4 100 -9z m57 -21 c2 -5 -3 -15 -10 -22 -12 -9 -15 -7 -19 13 -4 17 -1 23 11
22 8 -2 16 -7 18 -13z m98 7 c4 -6 -11 -10 -37 -9 -33 0 -38 2 -23 9 28 12 53
12 60 0z m205 -85 c9 -11 8 -19 -4 -37 -18 -25 -21 -58 -6 -58 6 0 10 -7 10
-15 0 -17 -2 -17 -22 -10 -9 4 -12 18 -10 44 2 21 0 41 -6 45 -5 3 -35 6 -66
7 -75 3 -72 19 4 19 33 0 60 4 60 10 0 15 26 12 40 -5z m-200 -5 c0 -5 -2 -10
-4 -10 -3 0 -8 5 -11 10 -3 6 -1 10 4 10 6 0 11 -4 11 -10z m-1489 -90 c23
-19 23 -19 4 -20 -21 0 -45 17 -45 32 0 14 17 9 41 -12z m272 -292 c22 -34
-36 -66 -62 -34 -9 11 -10 20 -1 36 13 25 47 24 63 -2z"/>
<path d="M853 1761 c-31 -22 -44 -40 -49 -66 -3 -20 -4 -38 -2 -40 2 -3 31 9
63 26 58 30 60 30 167 23 105 -6 108 -6 108 14 0 40 -51 63 -153 69 -91 5 -93
5 -134 -26z"/>
<path d="M965 1670 c-22 -5 -59 -16 -81 -25 -32 -12 -41 -21 -37 -35 7 -26 59
-45 121 -44 52 0 57 3 81 43 6 10 13 11 27 3 10 -6 14 -12 8 -12 -5 0 -19 -7
-30 -15 -18 -14 -16 -15 21 -9 22 4 42 8 44 10 3 2 -6 15 -19 29 -25 27 -21
32 11 15 12 -7 19 -21 19 -40 0 -37 15 -39 24 -4 8 29 -16 55 -71 80 -35 15
-57 16 -118 4z m20 -98 c-9 -9 -35 8 -35 24 0 16 2 16 20 -1 11 -10 18 -20 15
-23z"/>
<path d="M1140 1350 c0 -15 7 -20 28 -20 15 0 35 -7 45 -14 21 -16 103 -14
134 2 11 6 23 21 26 33 5 19 4 19 -11 6 -15 -13 -19 -13 -30 -1 -18 20 -45 17
-72 -6 -13 -11 -26 -20 -30 -20 -4 0 -19 9 -33 20 -14 11 -32 20 -41 20 -9 0
-16 -8 -16 -20z"/>
<path d="M1270 1199 c-53 -11 -166 -30 -197 -33 -22 -2 -53 -23 -53 -35 0 -3
19 -12 43 -19 23 -8 56 -19 72 -26 83 -35 103 -38 154 -21 27 9 65 31 84 50
20 19 43 35 52 35 18 0 21 35 3 46 -18 12 -108 13 -158 3z m50 -33 c0 -24
-131 -39 -153 -17 -6 6 11 12 49 16 33 4 64 8 69 10 22 8 35 4 35 -9z m-68
-61 c4 -13 -46 -19 -81 -10 -24 7 -25 8 -6 15 26 11 84 8 87 -5z"/>
<path d="M647 1603 c-13 -12 -7 -50 13 -94 19 -42 20 -43 20 -14 0 17 7 42 14
57 13 24 13 30 0 43 -16 16 -36 19 -47 8z"/>
<path d="M870 2580 c0 -12 35 -31 44 -23 15 15 4 33 -19 33 -14 0 -25 -4 -25
-10z"/>
<path d="M2500 2561 c0 -6 -15 -11 -32 -13 -29 -3 -34 -7 -39 -38 -7 -48 5
-70 41 -70 28 0 30 -2 30 -40 0 -38 2 -40 30 -40 21 0 30 5 30 16 0 14 3 14
15 4 8 -7 15 -16 15 -21 0 -5 -7 -9 -15 -9 -8 0 -15 -4 -15 -10 0 -5 9 -10 20
-10 19 0 20 7 20 120 l0 120 -50 0 c-27 0 -50 -4 -50 -9z"/>
<path d="M1590 2411 c0 -6 4 -13 10 -16 6 -3 7 1 4 9 -7 18 -14 21 -14 7z"/>
<path d="M1662 2395 c0 -16 2 -22 5 -12 2 9 2 23 0 30 -3 6 -5 -1 -5 -18z"/>
<path d="M2360 1491 c0 -11 5 -23 10 -26 6 -4 10 5 10 19 0 14 -4 26 -10 26
-5 0 -10 -9 -10 -19z"/>
<path d="M2360 1405 c0 -8 5 -15 10 -15 6 0 10 7 10 15 0 8 -4 15 -10 15 -5 0
-10 -7 -10 -15z"/>
<path d="M2360 1323 c0 -21 3 -24 9 -14 5 8 7 20 4 28 -8 21 -13 15 -13 -14z"/>
<path d="M2360 1241 c0 -16 5 -33 10 -36 6 -4 10 6 10 24 0 16 -4 33 -10 36
-6 4 -10 -6 -10 -24z"/>
<path d="M2410 1167 c0 -18 21 -27 67 -27 27 0 34 4 31 18 -4 23 -98 31 -98 9z"/>
<path d="M2300 1160 c0 -5 4 -10 9 -10 6 0 13 5 16 10 3 6 -1 10 -9 10 -9 0
-16 -4 -16 -10z"/>
<path d="M2158 1073 c12 -2 30 -2 40 0 9 3 -1 5 -23 4 -22 0 -30 -2 -17 -4z"/>
</g>
</svg>
